#!OML:ASF H:\GeneralSubjects\Female5\Project 1\Capture day 1\Session 1\Female5.ASF
:FULLY-SPECIFIED
:DEGREES
48
root -9.74943 16.0942 3.67104 -177.089 -85.7594 186.48
lowerback 6.40371 1.59416 -1.9494
upperback -10.4184 1.73419 1.18142
thorax -15.2476 0.994386 2.1105
lowerneck -18.7776 -1.33869 -0.644859
upperneck 29.9673 -1.94369 -1.12918
head 13.1866 -1.30723 -0.706667
rclavicle -1.2921e-014 -6.55989e-015
rhumerus -49.7329 18.4625 -84.9905
rradius 26.022
rwrist -13.0199
rhand -24.1123 -24.9367
rfingers 7.12502
rthumb 2.36889 -54.9033
lclavicle -1.2921e-014 -6.55989e-015
lhumerus -48.798 6.38551 72.473
lradius 24.9098
lwrist -10.6687
lhand -25.7487 33.5837
lfingers 7.12502
lthumb 0.78847 63.562
rfemur -4.92693 26.8027 24.101
rtibia -10.624
rfoot -2.5149 -22.7376
rtoes -19.1061
lfemur 12.1844 -41.1937 -37.895
ltibia -3.8796
lfoot -50.8518 2.39723
ltoes -12.6031
49
root -9.733 16.0951 3.67532 -178.702 -85.7153 188.092
lowerback 6.65855 1.58811 -1.91047
upperback -10.3688 1.74466 1.26563
thorax -15.3545 1.0042 2.17657
lowerneck -18.7721 -1.39012 -0.701447
upperneck 29.7043 -1.99741 -1.08611
head 13.0768 -1.32541 -0.683805
rclavicle 1.33683e-014 1.0138e-014
rhumerus -49.559 18.3294 -84.9852
rradius 25.9213
rwrist -12.8997
rhand -24.1227 -24.8054
rfingers 7.12502
rthumb 2.35883 -54.7721
lclavicle 1.33683e-014 1.0138e-014
lhumerus -48.6619 5.8658 73.8184
lradius 25.4035
lwrist -9.60148
lhand -24.7314 34.6899
lfingers 7.12502
lthumb 1.77098 64.6623
rfemur -5.15717 26.8659 24.1936
rtibia -10.3636
rfoot -2.62907 -22.8171
rtoes -19.2613
lfemur 12.1186 -41.2544 -37.7105
ltibia -3.84957
lfoot -50.8557 2.22671
ltoes -12.257
50
root -9.71489 16.0952 3.68362 -177.874 -85.6568 187.267
lowerback 6.94225 1.59328 -2.00813
upperback -10.3143 1.74394 1.28868
thorax -15.4774 1.0202 2.25246
lowerneck -18.876 -1.42632 -0.814303
upperneck 29.4802 -2.03271 -0.963344
head 13.0088 -1.32998 -0.619384
rclavicle 9.34288e-015 2.00773e-014
rhumerus -49.3873 18.528 -85.1783
rradius 25.8465
rwrist -13.0741
rhand -24.138 -24.6972
rfingers 7.12502
rthumb 2.34404 -54.664
lclavicle 9.34288e-015 2.00773e-014
lhumerus -48.3915 5.23721 75.2353
lradius 25.8191
lwrist -8.66253
lhand -24.0905 34.7218
lfingers 7.12502
lthumb 2.38999 64.6881
rfemur -5.3969 26.9032 24.0118
rtibia -10.1527
rfoot -2.4176 -22.7557
rtoes -20.9866
lfemur 12.0452 -41.2822 -37.7511
ltibia -3.86188
lfoot -50.8413 2.23939
ltoes -12.0309
51
root -9.69277 16.0971 3.69157 -176.645 -85.5523 186.095
lowerback 7.21452 1.62188 -2.09504
upperback -10.2815 1.76855 1.26111
thorax -15.6188 1.04266 2.26059
lowerneck -18.9773 -1.42971 -0.866892
upperneck 29.2911 -2.03029 -0.877653
head 12.9538 -1.31698 -0.574252
rclavicle 1.65488e-014 1.51076e-014
rhumerus -49.2278 18.7563 -85.3943
rradius 25.8197
rwrist -13.0968
rhand -24.157 -24.6201
rfingers 7.12502
rthumb 2.32573 -54.5872
lclavicle 1.65488e-014 1.51076e-014
lhumerus -48.2074 4.43707 76.6676
lradius 26.5677
lwrist -7.8826
lhand -23.3622 33.2636
lfingers 7.12502
lthumb 3.09328 63.2209
rfemur -5.79183 26.9823 23.7446
rtibia -9.85724
rfoot -2.18264 -22.6696
rtoes -23.3266
lfemur 11.8979 -41.3341 -37.7631
ltibia -3.90647
lfoot -50.9895 3.17409
ltoes -13.2674
52
root -9.67424 16.1016 3.6994 -176.575 -85.4756 186.097
lowerback 7.36804 1.63546 -2.08644
upperback -10.2499 1.79061 1.26579
thorax -15.681 1.05403 2.25372
lowerneck -18.8796 -1.41197 -0.791013
upperneck 29.0461 -1.99755 -0.944326
head 12.8307 -1.29915 -0.602091
rclavicle -1.21756e-014 -1.90833e-014
rhumerus -49.046 18.9389 -85.4955
rradius 25.8097
rwrist -13.1276
rhand -24.1505 -24.7214
rfingers 7.12502
rthumb 2.332 -54.6884
lclavicle -1.21756e-014 -1.90833e-014
lhumerus -48.2124 3.63721 78.0422
lradius 27.6766
lwrist -7.25751
lhand -22.5607 32.6213
lfingers 7.12502
lthumb 3.86734 62.566
rfemur -6.0897 27.0663 23.6579
rtibia -9.65762
rfoot -2.14521 -22.7293
rtoes -24.2833
lfemur 11.854 -41.6516 -37.7891
ltibia -3.97493
lfoot -51.4021 3.43881
ltoes -13.3982
53
root -9.65936 16.1081 3.70849 -175.366 -85.4326 184.954
lowerback 7.45994 1.61723 -2.20035
upperback -10.2067 1.75324 1.28355
thorax -15.6914 1.05237 2.34372
lowerneck -18.9308 -1.44345 -1.02734
upperneck 29.0272 -2.02684 -0.738271
head 12.8396 -1.30898 -0.487362
rclavicle -3.32964e-015 9.54166e-015
rhumerus -48.9296 19.1091 -85.5458
rradius 25.8914
rwrist -13.3762
rhand -24.0539 -24.7567
rfingers 7.12502
rthumb 2.42533 -54.7227
lclavicle -3.32964e-015 9.54166e-015
lhumerus -48.289 2.84363 79.387
lradius 28.9062
lwrist -6.69674
lhand -22.5468 32.6575
lfingers 7.12502
lthumb 3.88077 62.6019
rfemur -6.28501 27.0979 23.471
rtibia -9.57004
rfoot -2.18709 -22.7683
rtoes -24.1534
lfemur 11.9031 -42.1604 -38.0162
ltibia -4.04318
lfoot -51.9342 3.10987
ltoes -12.4281
54
root -9.64368 16.1138 3.7152 -173.701 -85.3652 183.368
lowerback 7.59969 1.60456 -2.38237
upperback -10.1841 1.70911 1.28441
thorax -15.7604 1.05471 2.45394
lowerneck -19.0889 -1.46997 -1.20859
upperneck 29.1343 -2.03735 -0.634086
head 12.9205 -1.31976 -0.421293
rclavicle 3.06128e-014 -3.97569e-015
rhumerus -48.8244 19.0774 -85.5265
rradius 25.9258
rwrist -13.6064
rhand -23.7518 -24.5143
rfingers 7.12502
rthumb 2.71708 -54.4767
lclavicle 3.06128e-014 -3.97569e-015
lhumerus -48.3595 2.07236 80.5176
lradius 30.2749
lwrist -7.02439
lhand -22.1843 32.7137
lfingers 7.12502
lthumb 4.23078 62.6515
rfemur -6.56121 27.1434 23.2073
rtibia -9.40745
rfoot -2.38627 -22.7263
rtoes -23.4587
lfemur 11.7975 -42.4114 -38.1146
ltibia -4.07676
lfoot -52.2119 3.48841
ltoes -12.7371
